<?xml version="1.0" encoding="UTF-8"?>
<svg id="Objects" xmlns="http://www.w3.org/2000/svg" xmlns:xlink="http://www.w3.org/1999/xlink" viewBox="0 0 500 500">
  <defs>
    <style>
      .cls-1 {
        fill: url(#Degradado_sin_nombre_44);
      }

      .cls-2 {
        fill: url(#Degradado_sin_nombre_84);
      }

      .cls-3 {
        filter: url(#drop-shadow-2);
      }

      .cls-4 {
        fill: url(#Degradado_sin_nombre_82);
      }

      .cls-5 {
        fill: url(#Degradado_sin_nombre_73);
      }

      .cls-6 {
        fill: url(#Degradado_sin_nombre_46);
      }

      .cls-7 {
        fill: url(#Degradado_sin_nombre_72);
      }

      .cls-8 {
        fill: url(#Degradado_sin_nombre_67);
      }

      .cls-9 {
        fill: url(#Degradado_sin_nombre_62);
      }

      .cls-10 {
        fill: #1e82ea;
      }

      .cls-11 {
        fill: url(#Degradado_sin_nombre_72-2);
      }

      .cls-12 {
        fill: url(#Degradado_sin_nombre_14);
      }

      .cls-13 {
        fill: url(#Degradado_sin_nombre_106);
      }

      .cls-14 {
        fill: url(#Degradado_sin_nombre_85);
      }
    </style>
    <filter id="drop-shadow-2" x="104" y="103" width="260" height="244" filterUnits="userSpaceOnUse">
      <feOffset dx="-16" dy="14"/>
      <feGaussianBlur result="blur" stdDeviation="15"/>
      <feFlood flood-color="#0d0a19" flood-opacity=".55"/>
      <feComposite in2="blur" operator="in"/>
      <feComposite in="SourceGraphic"/>
    </filter>
    <linearGradient id="Degradado_sin_nombre_72" data-name="Degradado sin nombre 72" x1="203.48" y1="362.57" x2="262.55" y2="387.22" gradientTransform="translate(-87.32 -101.41) rotate(-20.19)" gradientUnits="userSpaceOnUse">
      <stop offset="0" stop-color="#8c15e8"/>
      <stop offset=".96" stop-color="#241645"/>
    </linearGradient>
    <linearGradient id="Degradado_sin_nombre_82" data-name="Degradado sin nombre 82" x1="185.91" y1="337.22" x2="283.75" y2="380.96" gradientTransform="translate(-87.32 -101.41) rotate(-20.19)" gradientUnits="userSpaceOnUse">
      <stop offset=".21" stop-color="#1e82ea"/>
      <stop offset=".29" stop-color="#1d7ce1"/>
      <stop offset=".42" stop-color="#1c6ecb"/>
      <stop offset=".57" stop-color="#1a57a7"/>
      <stop offset=".75" stop-color="#183675"/>
      <stop offset=".95" stop-color="#140d36"/>
      <stop offset="1" stop-color="#140326"/>
    </linearGradient>
    <linearGradient id="Degradado_sin_nombre_67" data-name="Degradado sin nombre 67" x1="161.21" y1="384.64" x2="229.38" y2="357.95" gradientTransform="translate(-87.32 -101.41) rotate(-20.19)" gradientUnits="userSpaceOnUse">
      <stop offset=".04" stop-color="#241645"/>
      <stop offset="1" stop-color="#8c15e8"/>
    </linearGradient>
    <linearGradient id="Degradado_sin_nombre_106" data-name="Degradado sin nombre 106" x1="127.36" y1="382.48" x2="252.45" y2="333.5" gradientTransform="translate(-87.32 -101.41) rotate(-20.19)" gradientUnits="userSpaceOnUse">
      <stop offset="0" stop-color="#140326"/>
      <stop offset=".27" stop-color="#17306b"/>
      <stop offset=".63" stop-color="#1c6ac6"/>
      <stop offset=".79" stop-color="#1e82ea"/>
    </linearGradient>
    <linearGradient id="Degradado_sin_nombre_84" data-name="Degradado sin nombre 84" x1="138.4" y1="353.66" x2="201.65" y2="353.66" gradientTransform="translate(-87.32 -101.41) rotate(-20.19)" gradientUnits="userSpaceOnUse">
      <stop offset=".21" stop-color="#241645"/>
      <stop offset=".3" stop-color="#2a154e"/>
      <stop offset=".46" stop-color="#3b1569"/>
      <stop offset=".67" stop-color="#561594"/>
      <stop offset=".91" stop-color="#7c15cf"/>
      <stop offset="1" stop-color="#8c15e8"/>
    </linearGradient>
    <linearGradient id="Degradado_sin_nombre_85" data-name="Degradado sin nombre 85" x1="228.64" y1="367.04" x2="289.36" y2="367.04" gradientTransform="translate(-87.32 -101.41) rotate(-20.19)" gradientUnits="userSpaceOnUse">
      <stop offset="0" stop-color="#8c15e8"/>
      <stop offset=".09" stop-color="#7c15cf"/>
      <stop offset=".33" stop-color="#561594"/>
      <stop offset=".54" stop-color="#3b1569"/>
      <stop offset=".7" stop-color="#2a154e"/>
      <stop offset=".79" stop-color="#241645"/>
    </linearGradient>
    <linearGradient id="Degradado_sin_nombre_44" data-name="Degradado sin nombre 44" x1="206.76" y1="417.15" x2="291.23" y2="381.25" gradientTransform="translate(-87.32 -101.41) rotate(-20.19)" gradientUnits="userSpaceOnUse">
      <stop offset="0" stop-color="#19edd0"/>
      <stop offset=".13" stop-color="#23d8d2"/>
      <stop offset=".38" stop-color="#3fa4d8"/>
      <stop offset=".75" stop-color="#6b51e1"/>
      <stop offset="1" stop-color="#8c15e8"/>
    </linearGradient>
    <linearGradient id="Degradado_sin_nombre_14" data-name="Degradado sin nombre 14" x1="160.78" y1="399.73" x2="123.11" y2="378.1" gradientTransform="translate(-87.32 -101.41) rotate(-20.19)" gradientUnits="userSpaceOnUse">
      <stop offset="0" stop-color="#19edd0"/>
      <stop offset="1" stop-color="#8c15e8"/>
    </linearGradient>
    <linearGradient id="Degradado_sin_nombre_46" data-name="Degradado sin nombre 46" x1="123.07" y1="426.35" x2="170.79" y2="426.35" gradientTransform="translate(-87.32 -101.41) rotate(-20.19)" gradientUnits="userSpaceOnUse">
      <stop offset="0" stop-color="#8c15e8"/>
      <stop offset="1" stop-color="#1e82ea"/>
    </linearGradient>
    <linearGradient id="Degradado_sin_nombre_62" data-name="Degradado sin nombre 62" x1="219.95" y1="448.17" x2="302.77" y2="415.74" gradientTransform="translate(-87.32 -101.41) rotate(-20.19)" gradientUnits="userSpaceOnUse">
      <stop offset=".04" stop-color="#1e82ea"/>
      <stop offset=".85" stop-color="#8c15e8"/>
    </linearGradient>
    <linearGradient id="Degradado_sin_nombre_73" data-name="Degradado sin nombre 73" x1="129.11" y1="458.99" x2="167.43" y2="451.34" gradientTransform="translate(-87.32 -101.41) rotate(-20.19)" gradientUnits="userSpaceOnUse">
      <stop offset=".04" stop-color="#241645"/>
      <stop offset="1" stop-color="#8c15e8"/>
    </linearGradient>
    <linearGradient id="Degradado_sin_nombre_72-2" data-name="Degradado sin nombre 72" x1="265.45" y1="451" x2="295.22" y2="443.22" xlink:href="#Degradado_sin_nombre_72"/>
  </defs>
  <g class="cls-3">
    <path class="cls-7" d="M300.29,167.59s-14.73-4.33-33.3-2.15c0,0-4.57,1.13-4.4,5.49.17,4.37,4.19,5.99,7.07,5.37,2.87-.61,15.96-.8,25.86,1.11,0,0,4.53-6.18,4.78-9.82Z"/>
    <path class="cls-4" d="M300.11,151.24s-10.38-5.81-25.22-5.1c0,0-8.7,1.48-7.32,9.24,1.3,7.31,7.21,9.38,10.94,9.48,3.73.11,12.9.36,21.78,2.73,0,0,3.57-7.46-.18-16.35Z"/>
    <path class="cls-8" d="M220.29,192.08c-9.77,5.55-21.06,13.56-29.62,24.29,0,0-7.34-1.91-9.64-4.94,0,0,11.1-16.88,35.27-30.23,0,0,5.06-2.47,7.23,1.94,2.9,5.87-3.24,8.93-3.24,8.93Z"/>
    <path class="cls-13" d="M181.03,211.43s14.2-20.17,39.01-32.17c0,0,8.29-4.64,4.78-13.49-3.51-8.85-11.4-5.17-11.4-5.17,0,0-30.82,13.49-42.71,38.34,0,0,1.53,9.41,10.32,12.48Z"/>
    <path class="cls-2" d="M216.71,158.99c-36.19,17.11-46.01,39.95-46.01,39.95-3.68-6.61,1.13-15.91,1.13-15.91,9.09-18.18,26.85-29.62,39.49-35.83,0,0,5.81-2.74,8.56,2.74,2.75,5.48-3.18,9.05-3.18,9.05Z"/>
    <path class="cls-14" d="M255.19,147.48c21.59-3.25,51.4-2.5,65.47,22.23,0,0-8.79-19.65-35.21-31.11,0,0-12.47-5.63-33.15-3.58-1.76.17-3.46.88-4.74,2.11-1.14,1.1-2.07,2.69-1.67,4.87.89,4.84,5.55,6.08,9.3,5.48Z"/>
    <path class="cls-1" d="M257.98,207.2s31.65-13.89,41.21-36.67c9.56-22.78-10.89-31.42-13.73-31.93,0,0,18.35,5.13,33.21,26.89,14.87,21.77-8.91,54.28-46.48,72.52,0,0-19.72,10.79-26.39-7.35-6.53-17.75,12.18-23.47,12.18-23.47Z"/>
    <path class="cls-12" d="M189.13,215.64s10.94,3.87,11.15,17.67c.2,13.8-9.14,13.69-13.05,12.69-3.91-1-19.54-9.2-21.79-26.75,0,0-1.41-15.87,6.39-36.22,0,0-11.13,20.92,17.3,32.61Z"/>
    <path class="cls-6" d="M165.9,221.89s.29,17.46,12.27,37.41c0,0,10.24,14.96,37.49,17.78,2.22.23,4.47.16,6.64-.34,4.04-.93,9.1-3.48,7.36-10.46-2.48-9.98-9.05-14.38-17.68-14.98-8.63-.59-40.23-3.08-46.08-29.41Z"/>
    <path class="cls-9" d="M285.65,230.53s-14.36,8.05-8.23,21.73c6.14,13.68,20.24,3.85,20.24,3.85,0,0,38.58-24.21,35.67-56.09,0,0-1.73-14.35-13.48-32.85,0,0,17.81,29.3-34.2,63.36Z"/>
    <path class="cls-5" d="M178.17,259.3s15.03,22.82,61.78,17.88c0,0,5.15-.86,7.42,3.32,2.28,4.18-1.52,6.31-4.66,6.59,0,0-30.04,4.71-52.87-12.88,0,0-8.3-8.81-11.66-14.91Z"/>
    <path class="cls-11" d="M318.52,237.87s-2.91,3.24-1.45,6.91c1.46,3.67,3.85,3.24,5.92,1.04,2.07-2.2,10.74-15.23,11.61-27.23,0,0,.5-10.45-1.31-18.85,0,0,3.93,17.92-14.76,38.14Z"/>
  </g>
  <g>
    <path class="cls-10" d="M89.57,326.15h24.61l3.36,9.32-3.82,1.37c-.65-1.52-1.41-2.75-2.27-3.68s-1.82-1.55-2.87-1.85-2.27-.45-3.67-.45h-4.5v7.35h1.48c1.11,0,1.86-.08,2.25-.24s.67-.42.83-.76.25-1.03.25-2.06v-1.12h3.76v12.49h-3.76v-1.27c0-.86-.1-1.49-.31-1.89s-.48-.67-.83-.81c-.35-.14-1.13-.21-2.35-.21h-1.33v6.78c0,.72.04,1.16.11,1.31s.21.28.41.36.64.13,1.32.13h2.47c1.85,0,3.4-.26,4.67-.8,1.27-.53,2.4-1.39,3.39-2.57.99-1.18,1.76-2.59,2.29-4.21l3.86,1.33-3.87,10.96h-25.5v-4.08h.74c.99,0,1.65-.07,1.99-.21s.58-.39.72-.74c.07-.21.11-.81.11-1.8v-16.06c0-.87-.06-1.44-.18-1.71s-.31-.47-.56-.6-.75-.2-1.5-.2h-1.31v-4.08Z"/>
    <path class="cls-10" d="M131.66,334.03v2.81c1.59-1.08,2.95-1.82,4.09-2.22s2.29-.59,3.48-.59c1.37,0,2.57.29,3.62.87s1.81,1.3,2.29,2.17.72,2.1.72,3.69v8.79c0,.75.05,1.23.16,1.44s.27.37.5.46c.17.07.68.11,1.52.11h1.04v4.08h-12.4v-4.08c.94-.01,1.47-.04,1.58-.06.35-.1.58-.26.7-.49.11-.22.17-.71.17-1.46v-7.74c0-1-.11-1.65-.32-1.94-.34-.49-.87-.74-1.61-.74-.61,0-1.25.13-1.94.4-.69.27-1.62.82-2.79,1.65v8.37c0,.91.1,1.48.3,1.69.2.21.68.32,1.43.32h.68v4.08h-12.28v-4.08h.61c.97,0,1.57-.04,1.81-.13s.41-.23.53-.44c.12-.21.18-.63.18-1.24v-9.83h-3.13v-4.08c2.53-.31,4.9-.91,7.1-1.8h1.96Z"/>
    <path class="cls-10" d="M161,327.29v7.25h6.8v4.5h-6.8v7.35c0,1.66.09,2.73.26,3.2s.5.85.98,1.13c.63.38,1.36.57,2.18.57,1.45,0,2.89-.47,4.33-1.42v4.52c-1.23.58-2.33.98-3.33,1.21s-2.07.35-3.22.35c-1.31,0-2.47-.17-3.48-.5s-1.87-.8-2.58-1.42-1.2-1.26-1.48-1.95-.41-1.69-.41-3v-10.06h-3.17v-4.06c1.13-.37,2.09-.89,2.89-1.57s1.45-1.5,1.93-2.46.82-2.18,1-3.66h4.08Z"/>
    <path class="cls-10" d="M182.91,334.03v15.61c0,.75.04,1.2.13,1.37s.24.3.45.39.71.14,1.47.14h1.14v4.08h-13.06v-4.08h1.12c.73,0,1.2-.04,1.41-.12s.36-.21.45-.39.15-.55.15-1.1v-10.08h-3.13v-3.97c1.11-.06,2.18-.18,3.2-.36s1.93-.4,2.74-.65c.52-.17,1.16-.45,1.92-.85h2.01ZM179.49,324.61c1.07,0,1.98.38,2.74,1.13s1.13,1.67,1.13,2.74-.38,2-1.13,2.76-1.67,1.13-2.74,1.13-1.98-.38-2.74-1.13-1.13-1.67-1.13-2.74.39-1.97,1.16-2.74,1.68-1.15,2.7-1.15Z"/>
    <path class="cls-10" d="M197.85,327.29v7.25h6.8v4.5h-6.8v7.35c0,1.66.09,2.73.26,3.2s.5.85.98,1.13c.63.38,1.36.57,2.18.57,1.45,0,2.89-.47,4.33-1.42v4.52c-1.23.58-2.33.98-3.33,1.21s-2.07.35-3.22.35c-1.31,0-2.47-.17-3.48-.5s-1.87-.8-2.58-1.42-1.2-1.26-1.48-1.95-.41-1.69-.41-3v-10.06h-3.17v-4.06c1.13-.37,2.09-.89,2.89-1.57s1.45-1.5,1.93-2.46.82-2.18,1-3.66h4.08Z"/>
    <path class="cls-10" d="M206.76,334.54h13.18v4.08h-.87c-.79,0-1.29.05-1.5.16-.2.11-.31.26-.31.46,0,.17.15.61.44,1.33l3.17,7.64,3.32-7.64c.25-.58.38-.99.38-1.25,0-.23-.11-.4-.32-.52s-.7-.18-1.46-.18h-1.2v-4.08h11.41v4.08c-1.01.01-1.6.05-1.77.11-.24.06-.44.16-.6.32-.15.15-.41.58-.77,1.29l-9.55,19.59c-1,2.04-2.09,3.47-3.27,4.29-1.2.82-2.62,1.23-4.27,1.23s-2.91-.43-3.9-1.28-1.49-1.81-1.49-2.88c0-.85.3-1.57.89-2.19s1.3-.92,2.13-.92c.56,0,1.11.14,1.65.42.35.18.71.49,1.08.93.23.28.4.46.54.54s.26.12.39.12c.3,0,.58-.14.87-.42.42-.44.9-1.23,1.44-2.39l.8-1.73-7.18-15.06c-.35-.76-.62-1.24-.81-1.44s-.4-.33-.64-.4-.84-.11-1.8-.11v-4.08Z"/>
    <path class="cls-10" d="M266.46,326.15h3l2.89,10.59-3.93,1.14c-1.31-2.52-2.54-4.31-3.7-5.37-1.61-1.45-3.35-2.18-5.22-2.18-1.37,0-2.64.38-3.83,1.14s-2.13,1.88-2.83,3.36-1.05,3.21-1.05,5.2c0,3.03.8,5.63,2.4,7.82s3.69,3.27,6.29,3.27c1.65,0,3.23-.47,4.75-1.42,1.9-1.17,3.54-2.74,4.92-4.71l3.27,2.43c-2.13,2.9-4.07,4.92-5.83,6.06-2.72,1.76-5.74,2.64-9.08,2.64-2.77,0-5.28-.67-7.53-2s-4.04-3.19-5.37-5.59-2.01-5.01-2.01-7.84.65-5.38,1.95-7.7c1.3-2.32,3.08-4.12,5.32-5.42s4.75-1.94,7.51-1.94,5.26.59,7.37,1.77l.7-1.27Z"/>
    <path class="cls-10" d="M277.25,326.15h18.18c1.17,0,2.45.11,3.84.32s2.64.68,3.76,1.39c1.12.72,1.99,1.63,2.61,2.73.62,1.1.93,2.34.93,3.72,0,2.24-.8,4.05-2.4,5.44s-3.49,2.29-5.67,2.71l6.06,7.06.25.32c.39.48.75.83,1.08,1.07s.65.4.97.5.77.15,1.35.15h1.27v4.08h-9.44l-9.47-12.7h-2.45v5.87c0,1.01.06,1.66.17,1.93s.29.48.54.61.74.2,1.49.2h1.35v4.08h-14.43v-4.08h1.32c.7,0,1.19-.07,1.48-.22s.51-.37.65-.67c.07-.17.11-.7.11-1.58v-16.59c0-.65-.05-1.11-.16-1.38-.11-.27-.28-.45-.52-.54-.34-.15-.73-.23-1.17-.23l-.6.02h-1.11v-4.2ZM288.13,330.99v7.63h4.37c1.72,0,3-.16,3.86-.48s1.49-.77,1.92-1.36.64-1.31.64-2.16c0-.77-.2-1.44-.6-2s-.97-.97-1.71-1.24-1.95-.4-3.62-.4h-4.86Z"/>
    <path class="cls-10" d="M325.16,326.15h6.62l8.85,22.75c.48,1.21.9,1.96,1.28,2.24s1.06.42,2.06.4v4.08h-13.94v-4.08l.85-.02c.77,0,1.32-.1,1.63-.31s.47-.45.47-.75c0-.25-.14-.77-.4-1.56l-.88-2.68h-8.96l-1.11,2.98c-.23.63-.34,1.05-.34,1.25,0,.23.08.43.24.61s.43.32.79.4c.24.06.9.08,1.99.08v4.08h-11.41v-4.08c.73,0,1.27-.06,1.61-.19s.62-.32.83-.57c.22-.25.46-.73.73-1.42l9.11-23.22ZM324.27,342.02h5.85l-2.85-8.09-3,8.09Z"/>
    <path class="cls-10" d="M349.06,326.15h24.38l3.34,9.4-3.82,1.33c-.62-1.37-1.21-2.4-1.77-3.1s-1.23-1.28-2.01-1.74-1.61-.77-2.51-.93c-.61-.1-1.68-.15-3.21-.15h-3.63v7.82h1.86c.7,0,1.26-.11,1.66-.32s.69-.49.87-.82.26-.9.26-1.69v-1.56h3.8v13.18h-3.8v-1.9c0-.55-.05-.95-.15-1.2-.13-.34-.3-.61-.53-.82s-.48-.36-.77-.44-.81-.13-1.57-.13h-1.63v6.19c0,.75.06,1.25.19,1.51s.33.45.61.58.82.19,1.63.19h1.2v4.08h-14.39v-4.08h.96c1.06,0,1.76-.14,2.09-.41s.5-.83.5-1.66v-16.94c0-.77-.06-1.29-.19-1.54-.13-.25-.34-.44-.64-.57s-.89-.19-1.76-.19h-.96v-4.08Z"/>
    <path class="cls-10" d="M383.91,325.16h2.79l.3.99h16.61l.36-.99h2.81l3.66,10.33-3.93,1.37c-.87-1.72-1.5-2.84-1.88-3.36-.75-1.03-1.61-1.84-2.58-2.43-.73-.45-1.46-.68-2.18-.68-.34,0-.57.08-.7.24s-.19.53-.19,1.11v16.94c0,1,.04,1.63.11,1.88s.19.45.36.6c.17.15.4.25.7.3s1.09.07,2.38.07v4.08h-14.39v-4.08h.87c.96,0,1.58-.06,1.85-.18s.48-.33.62-.63c.14-.3.21-.93.21-1.89v-17.32c0-.49-.06-.8-.17-.93s-.35-.19-.72-.19c-.73,0-1.55.27-2.45.82s-1.7,1.32-2.41,2.32c-.28.39-.88,1.5-1.8,3.32l-3.87-1.37,3.63-10.33Z"/>
  </g>
</svg>