<?xml version="1.0" encoding="UTF-8"?>
<svg id="Objects" xmlns="http://www.w3.org/2000/svg" viewBox="0 0 500 500">
  <defs>
    <style>
      .cls-1 {
        fill: #1e82ea;
      }
    </style>
  </defs>
  <path class="cls-1" d="M88.5,231h24.8l3.4,9.4-3.8,1.4c-.7-1.5-1.4-2.8-2.3-3.7s-1.8-1.6-2.9-1.9-2.3-.5-3.7-.5h-4.5v7.4h1.5c1.1,0,1.9,0,2.3-.2s.7-.4.8-.8.3-1,.3-2.1v-1.1h3.8v12.6h-3.8v-1.3c0-.9-.1-1.5-.3-1.9s-.5-.7-.8-.8c-.4-.1-1.1-.2-2.4-.2h-1.3v6.8c0,.7,0,1.2.1,1.3s.2.3.4.4.6.1,1.3.1h2.5c1.9,0,3.4-.3,4.7-.8,1.3-.5,2.4-1.4,3.4-2.6,1-1.2,1.8-2.6,2.3-4.2l3.9,1.3-3.9,11h-25.7v-4.1h.7c1,0,1.7,0,2-.2s.6-.4.7-.7c0-.2.1-.8.1-1.8v-16.2c0-.9,0-1.5-.2-1.7s-.3-.5-.6-.6-.8-.2-1.5-.2h-1.3v-4.1Z"/>
  <path class="cls-1" d="M130.9,238.9v2.8c1.6-1.1,3-1.8,4.1-2.2s2.3-.6,3.5-.6,2.6.3,3.6.9,1.8,1.3,2.3,2.2.7,2.1.7,3.7v8.8c0,.8,0,1.2.2,1.4s.3.4.5.5c.2,0,.7.1,1.5.1h1v4.1h-12.5v-4.1c.9,0,1.5,0,1.6,0,.4,0,.6-.3.7-.5.1-.2.2-.7.2-1.5v-7.8c0-1-.1-1.7-.3-2-.3-.5-.9-.7-1.6-.7s-1.3.1-2,.4c-.7.3-1.6.8-2.8,1.7v8.4c0,.9,0,1.5.3,1.7.2.2.7.3,1.4.3h.7v4.1h-12.4v-4.1h.6c1,0,1.6,0,1.8-.1s.4-.2.5-.4c.1-.2.2-.6.2-1.3v-9.9h-3.1v-4.1c2.5-.3,4.9-.9,7.1-1.8h2Z"/>
  <path class="cls-1" d="M160.4,232.2v7.3h6.8v4.5h-6.8v7.4c0,1.7,0,2.7.3,3.2s.5.9,1,1.1c.6.4,1.4.6,2.2.6,1.5,0,2.9-.5,4.4-1.4v4.6c-1.2.6-2.4,1-3.3,1.2s-2.1.4-3.2.4-2.5-.2-3.5-.5-1.9-.8-2.6-1.4-1.2-1.3-1.5-2-.4-1.7-.4-3v-10.1h-3.2v-4.1c1.1-.4,2.1-.9,2.9-1.6s1.5-1.5,1.9-2.5.8-2.2,1-3.7h4.1Z"/>
  <path class="cls-1" d="M182.5,238.9v15.7c0,.8,0,1.2.1,1.4s.2.3.5.4.7.1,1.5.1h1.1v4.1h-13.1v-4.1h1.1c.7,0,1.2,0,1.4-.1s.4-.2.5-.4.1-.6.1-1.1v-10.1h-3.1v-4c1.1,0,2.2-.2,3.2-.4s1.9-.4,2.8-.7c.5-.2,1.2-.5,1.9-.9h2ZM179,229.5c1.1,0,2,.4,2.8,1.1s1.1,1.7,1.1,2.8-.4,2-1.1,2.8-1.7,1.1-2.8,1.1-2-.4-2.8-1.1-1.1-1.7-1.1-2.8.4-2,1.2-2.8,1.7-1.2,2.7-1.2Z"/>
  <path class="cls-1" d="M197.5,232.2v7.3h6.8v4.5h-6.8v7.4c0,1.7,0,2.7.3,3.2s.5.9,1,1.1c.6.4,1.4.6,2.2.6,1.5,0,2.9-.5,4.4-1.4v4.6c-1.2.6-2.4,1-3.3,1.2s-2.1.4-3.2.4-2.5-.2-3.5-.5-1.9-.8-2.6-1.4-1.2-1.3-1.5-2-.4-1.7-.4-3v-10.1h-3.2v-4.1c1.1-.4,2.1-.9,2.9-1.6s1.5-1.5,1.9-2.5.8-2.2,1-3.7h4.1Z"/>
  <path class="cls-1" d="M206.5,239.5h13.3v4.1h-.9c-.8,0-1.3,0-1.5.2-.2.1-.3.3-.3.5s.1.6.4,1.3l3.2,7.7,3.3-7.7c.3-.6.4-1,.4-1.3s-.1-.4-.3-.5-.7-.2-1.5-.2h-1.2v-4.1h11.5v4.1c-1,0-1.6,0-1.8.1-.2,0-.4.2-.6.3-.2.2-.4.6-.8,1.3l-9.6,19.7c-1,2.1-2.1,3.5-3.3,4.3-1.2.8-2.6,1.2-4.3,1.2s-2.9-.4-3.9-1.3-1.5-1.8-1.5-2.9.3-1.6.9-2.2,1.3-.9,2.1-.9,1.1.1,1.7.4c.4.2.7.5,1.1.9.2.3.4.5.5.5s.3.1.4.1c.3,0,.6-.1.9-.4.4-.4.9-1.2,1.4-2.4l.8-1.7-7.2-15.2c-.4-.8-.6-1.2-.8-1.4s-.4-.3-.6-.4-.8-.1-1.8-.1v-4.1Z"/>
  <path class="cls-1" d="M266.6,231h3l2.9,10.7-4,1.1c-1.3-2.5-2.6-4.3-3.7-5.4-1.6-1.5-3.4-2.2-5.3-2.2s-2.7.4-3.9,1.1-2.1,1.9-2.8,3.4-1.1,3.2-1.1,5.2c0,3,.8,5.7,2.4,7.9s3.7,3.3,6.3,3.3,3.3-.5,4.8-1.4c1.9-1.2,3.6-2.8,5-4.7l3.3,2.4c-2.1,2.9-4.1,5-5.9,6.1-2.7,1.8-5.8,2.7-9.1,2.7s-5.3-.7-7.6-2-4.1-3.2-5.4-5.6-2-5-2-7.9.7-5.4,2-7.8c1.3-2.3,3.1-4.2,5.4-5.5s4.8-2,7.6-2,5.3.6,7.4,1.8l.7-1.3Z"/>
  <path class="cls-1" d="M277.4,231h18.3c1.2,0,2.5.1,3.9.3s2.7.7,3.8,1.4c1.1.7,2,1.6,2.6,2.7.6,1.1.9,2.4.9,3.7,0,2.3-.8,4.1-2.4,5.5s-3.5,2.3-5.7,2.7l6.1,7.1.3.3c.4.5.8.8,1.1,1.1s.7.4,1,.5.8.1,1.4.1h1.3v4.1h-9.5l-9.5-12.8h-2.5v5.9c0,1,0,1.7.2,1.9s.3.5.5.6.7.2,1.5.2h1.4v4.1h-14.5v-4.1h1.3c.7,0,1.2,0,1.5-.2s.5-.4.7-.7c0-.2.1-.7.1-1.6v-16.7c0-.7,0-1.1-.2-1.4-.1-.3-.3-.5-.5-.5-.3-.2-.7-.2-1.2-.2h-.6s-1.1,0-1.1,0v-4.2ZM288.4,235.9v7.7h4.4c1.7,0,3-.2,3.9-.5s1.5-.8,1.9-1.4.6-1.3.6-2.2-.2-1.4-.6-2-1-1-1.7-1.2-2-.4-3.6-.4h-4.9Z"/>
  <path class="cls-1" d="M325.7,231h6.7l8.9,22.9c.5,1.2.9,2,1.3,2.3s1.1.4,2.1.4v4.1h-14v-4.1h.9c.8,0,1.3-.1,1.6-.3s.5-.5.5-.8-.1-.8-.4-1.6l-.9-2.7h-9l-1.1,3c-.2.6-.3,1.1-.3,1.3s0,.4.2.6.4.3.8.4c.2,0,.9,0,2,0v4.1h-11.5v-4.1c.7,0,1.3,0,1.6-.2s.6-.3.8-.6c.2-.3.5-.7.7-1.4l9.2-23.4ZM324.8,247h5.9l-2.9-8.1-3,8.1Z"/>
  <path class="cls-1" d="M349.7,231h24.5l3.4,9.5-3.8,1.3c-.6-1.4-1.2-2.4-1.8-3.1s-1.2-1.3-2-1.8-1.6-.8-2.5-.9c-.6,0-1.7-.1-3.2-.1h-3.7v7.9h1.9c.7,0,1.3-.1,1.7-.3s.7-.5.9-.8.3-.9.3-1.7v-1.6h3.8v13.3h-3.8v-1.9c0-.6,0-1-.1-1.2-.1-.3-.3-.6-.5-.8s-.5-.4-.8-.4-.8-.1-1.6-.1h-1.6v6.2c0,.8,0,1.3.2,1.5s.3.5.6.6.8.2,1.6.2h1.2v4.1h-14.5v-4.1h1c1.1,0,1.8-.1,2.1-.4s.5-.8.5-1.7v-17.1c0-.8,0-1.3-.2-1.6-.1-.3-.3-.4-.6-.6s-.9-.2-1.8-.2h-1v-4.1Z"/>
  <path class="cls-1" d="M384.8,230h2.8l.3,1h16.7l.4-1h2.8l3.7,10.4-4,1.4c-.9-1.7-1.5-2.9-1.9-3.4-.8-1-1.6-1.9-2.6-2.4-.7-.5-1.5-.7-2.2-.7s-.6,0-.7.2-.2.5-.2,1.1v17.1c0,1,0,1.6.1,1.9s.2.5.4.6c.2.1.4.2.7.3s1.1,0,2.4,0v4.1h-14.5v-4.1h.9c1,0,1.6,0,1.9-.2s.5-.3.6-.6c.1-.3.2-.9.2-1.9v-17.4c0-.5,0-.8-.2-.9s-.4-.2-.7-.2c-.7,0-1.6.3-2.5.8s-1.7,1.3-2.4,2.3c-.3.4-.9,1.5-1.8,3.3l-3.9-1.4,3.7-10.4Z"/>
</svg>